# xmcd CD database file
#
# Track frame offsets:
#	150
#	21190
#	33327
#	55580
#	72732
#	87602
#	108937
#	131197
#	142170
#	160172
#	175952
#
# Disc length: 2654 seconds
#
# Revision: 0
# Processed by: cddbd v1.5.1PL0 Copyright (c) Steve Scherf et al.
# Submitted via: CDex 1.51
#
DISCID=a00a5c0b
DTITLE=Secret Service Band - At Your Service
DYEAR=2000
DGENRE=Country
TTITLE0=The Way It Goes
TTITLE1=POW
TTITLE2=Nobody
TTITLE3=Going Going Gone
TTITLE4=Footstomping
TTITLE5=All She Wants
TTITLE6=Catch 22
TTITLE7=Heart Like A Wheel
TTITLE8=We'll Make It Through Somehow
TTITLE9=Shot Down
TTITLE10=Love Changes
EXTD=YEAR: 2000
EXTT0=
EXTT1=
EXTT2=
EXTT3=
EXTT4=
EXTT5=
EXTT6=
EXTT7=
EXTT8=
EXTT9=
EXTT10=
PLAYORDER=
